<svg width="23" height="24" viewBox="0 0 23 24" fill="none" xmlns="http://www.w3.org/2000/svg">
<path d="M11.5 0.166687C8.45001 0.166687 5.52494 1.25713 3.36827 3.19813C1.2116 5.13913 0 7.7717 0 10.5167C0 15.3122 3.62889 19.3372 8.54833 20.5102L11.5 23.1667L14.4517 20.5102C19.3711 19.3372 23 15.3122 23 10.5167C23 7.7717 21.7884 5.13913 19.6317 3.19813C17.4751 1.25713 14.55 0.166687 11.5 0.166687ZM11.5 2.46669C13.6211 2.46669 15.3333 4.00769 15.3333 5.91669C15.3333 7.82569 13.6211 9.36669 11.5 9.36669C9.37889 9.36669 7.66667 7.82569 7.66667 5.91669C7.66667 4.00769 9.37889 2.46669 11.5 2.46669ZM11.5 18.9117C9.98182 18.9117 8.48724 18.5736 7.14952 17.9274C5.81181 17.2813 4.67255 16.3473 3.83333 15.2087C3.87167 12.9202 8.94444 11.6667 11.5 11.6667C14.0428 11.6667 19.1283 12.9202 19.1667 15.2087C18.3275 16.3473 17.1882 17.2813 15.8505 17.9274C14.5128 18.5736 13.0182 18.9117 11.5 18.9117Z" fill="#860AA5"/>
</svg>
