<svg width="23" height="23" viewBox="0 0 23 23" fill="none" xmlns="http://www.w3.org/2000/svg">
<path d="M19.75 8.75H14.25V3.25C14.25 2.52065 13.9603 1.82118 13.4445 1.30546C12.9288 0.789731 12.2293 0.5 11.5 0.5C10.7707 0.5 10.0712 0.789731 9.55546 1.30546C9.03973 1.82118 8.75 2.52065 8.75 3.25L8.84762 8.75H3.25C2.52065 8.75 1.82118 9.03973 1.30546 9.55546C0.789731 10.0712 0.5 10.7707 0.5 11.5C0.5 12.2293 0.789731 12.9288 1.30546 13.4445C1.82118 13.9603 2.52065 14.25 3.25 14.25L8.84762 14.1524L8.75 19.75C8.75 20.4793 9.03973 21.1788 9.55546 21.6945C10.0712 22.2103 10.7707 22.5 11.5 22.5C12.2293 22.5 12.9288 22.2103 13.4445 21.6945C13.9603 21.1788 14.25 20.4793 14.25 19.75V14.1524L19.75 14.25C20.4793 14.25 21.1788 13.9603 21.6945 13.4445C22.2103 12.9288 22.5 12.2293 22.5 11.5C22.5 10.7707 22.2103 10.0712 21.6945 9.55546C21.1788 9.03973 20.4793 8.75 19.75 8.75Z" fill="#860AA5"/>
</svg>
