<svg width="23" height="24" viewBox="0 0 23 24" fill="none" xmlns="http://www.w3.org/2000/svg">
<path d="M14.9299 14.6393C14.5568 14.0485 14.3639 13.3618 14.375 12.6632C14.3861 11.9645 14.6006 11.2843 14.9923 10.7057C15.3839 10.127 15.9358 9.67514 16.5803 9.40528C17.2248 9.13541 17.934 9.05927 18.6211 9.18619C19.3082 9.31311 19.9434 9.63757 20.4489 10.1199C20.9545 10.6022 21.3085 11.2214 21.4676 11.9017C21.6268 12.5821 21.5841 13.2941 21.3449 13.9506C21.1056 14.6071 20.6802 15.1796 20.1207 15.5981C21.8673 16.5612 23 18.4112 23 20.625V22.7812C23 22.9719 22.9243 23.1547 22.7895 23.2895C22.6547 23.4243 22.4719 23.5 22.2812 23.5C22.0906 23.5 21.9078 23.4243 21.773 23.2895C21.6382 23.1547 21.5625 22.9719 21.5625 22.7812V20.625C21.5625 18.1467 19.7283 16.3125 17.25 16.3125C15.9419 16.3125 15.3841 16.2838 14.6553 16.1371C12.8584 15.772 11.3016 14.6996 9.50187 12.4485C9.43762 12.3755 9.38883 12.2903 9.35848 12.1979C9.32813 12.1055 9.31684 12.0079 9.3253 11.911C9.33375 11.8142 9.36178 11.72 9.40768 11.6343C9.45358 11.5486 9.51639 11.473 9.59233 11.4123C9.66826 11.3515 9.75573 11.3068 9.84944 11.2809C9.94315 11.2549 10.0412 11.2482 10.1375 11.2612C10.2339 11.2743 10.3266 11.3067 10.4101 11.3566C10.4936 11.4065 10.566 11.4728 10.6231 11.5515C11.9169 13.1673 12.9993 14.0527 14.122 14.4883C14.3448 14.5631 14.6179 14.6076 14.9299 14.6393ZM17.4958 14.8232C17.6151 14.8376 17.7359 14.8534 17.8566 14.8721L17.9688 14.875C18.5199 14.8738 19.0497 14.6615 19.4493 14.2818C19.8489 13.9022 20.0878 13.3839 20.1172 12.8335C20.1465 12.2831 19.9639 11.7423 19.6069 11.3223C19.25 10.9023 18.7457 10.635 18.1978 10.5752C17.6499 10.5154 17.0998 10.6678 16.6607 11.0009C16.2216 11.3341 15.9267 11.8227 15.8367 12.3665C15.7466 12.9103 15.8683 13.4679 16.1766 13.9248C16.4848 14.3817 16.9579 14.7032 17.4958 14.8232ZM14.0587 17.7069C14.2494 17.7069 14.4322 17.7826 14.567 17.9174C14.7018 18.0522 14.7775 18.235 14.7775 18.4256C14.7669 18.5388 14.7427 18.6503 14.7056 18.7577C14.4483 19.3039 14.375 19.8703 14.375 20.6293V22.7856C14.375 22.9762 14.2993 23.159 14.1645 23.2938C14.0297 23.4286 13.8469 23.5043 13.6562 23.5043C13.4656 23.5043 13.2828 23.4286 13.148 23.2938C13.0132 23.159 12.9375 22.9762 12.9375 22.7856V20.6293C12.9375 19.6849 13.041 18.9244 13.3788 18.1913C13.4276 18.0498 13.5193 17.9271 13.6412 17.8403C13.7631 17.7534 13.9091 17.7068 14.0587 17.7069ZM8.56462 8.79725C8.67679 8.94655 8.72644 9.13365 8.70306 9.31891C8.67969 9.50418 8.58513 9.67309 8.4394 9.78985C8.29368 9.90662 8.10823 9.96209 7.92232 9.94451C7.73641 9.92694 7.56464 9.8377 7.44338 9.69569L4.47062 5.97975C4.40637 5.90677 4.35758 5.8215 4.32723 5.72912C4.29688 5.63674 4.28559 5.53915 4.29405 5.44228C4.3025 5.34541 4.33053 5.25126 4.37643 5.16553C4.42233 5.0798 4.48514 5.00428 4.56108 4.94353C4.63701 4.88279 4.72448 4.83808 4.81819 4.81212C4.9119 4.78616 5.00991 4.77948 5.10628 4.7925C5.20264 4.80551 5.29537 4.83795 5.37883 4.88784C5.4623 4.93773 5.53478 5.00404 5.59188 5.08275L8.56462 8.79725ZM1.4375 16.3125H9.34375C9.53437 16.3125 9.71719 16.3882 9.85198 16.523C9.98677 16.6578 10.0625 16.8406 10.0625 17.0312C10.0625 17.2219 9.98677 17.4047 9.85198 17.5395C9.71719 17.6743 9.53437 17.75 9.34375 17.75H0.71875C0.528126 17.75 0.345309 17.6743 0.210517 17.5395C0.0757252 17.4047 0 17.2219 0 17.0312V1.21875C0 1.02813 0.0757252 0.845309 0.210517 0.710517C0.345309 0.575725 0.528126 0.5 0.71875 0.5H17.9688C18.1594 0.5 18.3422 0.575725 18.477 0.710517C18.6118 0.845309 18.6875 1.02813 18.6875 1.21875V5.53125C18.6875 5.72187 18.6118 5.90469 18.477 6.03948C18.3422 6.17427 18.1594 6.25 17.9688 6.25C17.7781 6.25 17.5953 6.17427 17.4605 6.03948C17.3257 5.90469 17.25 5.72187 17.25 5.53125V1.9375H1.4375V16.3125Z" fill="#860AA5"/>
</svg>
