<svg width="33" height="34" viewBox="0 0 33 34" fill="none" xmlns="http://www.w3.org/2000/svg">
<path d="M28.875 26.625V28H4.125V26.625L6.875 23.875V15.625C6.875 11.3625 9.66625 7.60875 13.75 6.39875V6C13.75 5.27065 14.0397 4.57118 14.5555 4.05546C15.0712 3.53973 15.7707 3.25 16.5 3.25C17.2293 3.25 17.9288 3.53973 18.4445 4.05546C18.9603 4.57118 19.25 5.27065 19.25 6V6.39875C23.3337 7.60875 26.125 11.3625 26.125 15.625V23.875L28.875 26.625ZM19.25 29.375C19.25 30.1043 18.9603 30.8038 18.4445 31.3195C17.9288 31.8353 17.2293 32.125 16.5 32.125C15.7707 32.125 15.0712 31.8353 14.5555 31.3195C14.0397 30.8038 13.75 30.1043 13.75 29.375" fill="#860AA5"/>
</svg>
