<svg width="23" height="24" viewBox="0 0 23 24" fill="none" xmlns="http://www.w3.org/2000/svg">
<path d="M2.3 21.6429V11.7858C1.6675 11.7858 1.12623 11.5715 0.6762 11.1428C0.226167 10.7142 0.000766667 10.1984 0 9.59528V7.4048C0 6.80242 0.2254 6.28693 0.6762 5.85833C1.127 5.42972 1.66827 5.21506 2.3 5.21433H5.98C5.88417 5.05004 5.82207 4.87663 5.7937 4.69409C5.76533 4.51155 5.75077 4.31988 5.75 4.11909C5.75 3.20639 6.08542 2.4306 6.75625 1.79171C7.42708 1.15282 8.24167 0.833374 9.2 0.833374C9.64083 0.833374 10.0529 0.911136 10.4362 1.06666C10.8196 1.22218 11.1742 1.43648 11.5 1.70956C11.8258 1.4175 12.1804 1.19845 12.5637 1.05242C12.9471 0.90639 13.3592 0.833374 13.8 0.833374C14.7583 0.833374 15.5729 1.15282 16.2437 1.79171C16.9146 2.4306 17.25 3.20639 17.25 4.11909C17.25 4.31988 17.2308 4.50717 17.1925 4.68094C17.1542 4.85472 17.0967 5.03252 17.02 5.21433H20.7C21.3325 5.21433 21.8741 5.42899 22.3249 5.85833C22.7757 6.28766 23.0008 6.80315 23 7.4048V9.59528C23 10.1977 22.775 10.7135 22.3249 11.1428C21.8749 11.5722 21.3333 11.7865 20.7 11.7858V21.6429C20.7 22.2453 20.475 22.7611 20.0249 23.1905C19.5749 23.6198 19.0333 23.8341 18.4 23.8334H4.6C3.9675 23.8334 3.42623 23.6191 2.9762 23.1905C2.52617 22.7619 2.30077 22.246 2.3 21.6429ZM13.8 3.02385C13.4742 3.02385 13.2012 3.12899 12.9812 3.33928C12.7612 3.54956 12.6508 3.8095 12.65 4.11909C12.6492 4.42868 12.7596 4.68898 12.9812 4.89999C13.2028 5.11101 13.4757 5.21579 13.8 5.21433C14.1243 5.21287 14.3976 5.10772 14.6199 4.8989C14.8423 4.69007 14.9523 4.43014 14.95 4.11909C14.9477 3.80804 14.8373 3.5481 14.6188 3.33928C14.4003 3.13045 14.1274 3.02531 13.8 3.02385ZM8.05 4.11909C8.05 4.42941 8.1604 4.68971 8.3812 4.89999C8.602 5.11028 8.87493 5.21506 9.2 5.21433C9.52507 5.2136 9.79838 5.10845 10.0199 4.8989C10.2415 4.68934 10.3515 4.42941 10.35 4.11909C10.3485 3.80877 10.2381 3.54883 10.0188 3.33928C9.79953 3.12972 9.5266 3.02458 9.2 3.02385C8.8734 3.02312 8.60047 3.12826 8.3812 3.33928C8.16193 3.55029 8.05153 3.81023 8.05 4.11909ZM2.3 7.4048V9.59528H10.35V7.4048H2.3ZM10.35 21.6429V11.7858H4.6V21.6429H10.35ZM12.65 21.6429H18.4V11.7858H12.65V21.6429ZM20.7 9.59528V7.4048H12.65V9.59528H20.7Z" fill="#860AA5"/>
</svg>
