<svg width="23" height="24" viewBox="0 0 23 24" fill="none" xmlns="http://www.w3.org/2000/svg">
<path d="M23 14.8751V23.5H11.5V14.8751H14.375V12.0002H20.125V14.8751H23ZM15.8125 14.8751H18.6875V13.4377H15.8125V14.8751ZM21.5625 19.1876H20.125V20.625H18.6875V19.1876H15.8125V20.625H14.375V19.1876H12.9375V22.0625H21.5625V19.1876ZM21.5625 16.3126H12.9375V17.7501H21.5625V16.3126ZM17.5757 10.5627C17.1714 10.106 16.6922 9.75412 16.1382 9.50705C15.5841 9.25998 14.9964 9.13271 14.375 9.12522C13.776 9.12522 13.2183 9.23752 12.7017 9.46213C12.1851 9.68673 11.7284 9.9937 11.3315 10.383C10.9347 10.7723 10.624 11.2328 10.3994 11.7643C10.1748 12.2959 10.0625 12.8537 10.0625 13.4377C10.0625 14.1264 9.90902 14.7741 9.60205 15.3805C9.29508 15.9869 8.86084 16.496 8.29932 16.9078C8.63623 17.08 8.95068 17.2784 9.24268 17.503C9.53467 17.7276 9.80794 17.9822 10.0625 18.2667V22.0625C10.0625 21.4711 9.9502 20.9133 9.72559 20.3892C9.50098 19.8651 9.19401 19.4084 8.80469 19.0191C8.41536 18.6298 7.95492 18.3191 7.42334 18.087C6.89176 17.8549 6.33398 17.7426 5.75 17.7501C5.15104 17.7501 4.59326 17.8624 4.07666 18.087C3.56006 18.3116 3.10335 18.6186 2.70654 19.0079C2.30973 19.3972 1.99902 19.8576 1.77441 20.3892C1.5498 20.9208 1.4375 21.4785 1.4375 22.0625H0C0 21.516 0.0748698 20.9882 0.224609 20.479C0.374349 19.9699 0.587728 19.487 0.864746 19.0303C1.14176 18.5736 1.47868 18.1694 1.87549 17.8175C2.2723 17.4656 2.71403 17.1624 3.20068 16.9078C2.64665 16.5035 2.21615 15.9982 1.90918 15.3917C1.60221 14.7853 1.44499 14.1339 1.4375 13.4377C1.4375 12.8462 1.5498 12.2884 1.77441 11.7643C1.99902 11.2403 2.30599 10.7836 2.69531 10.3942C3.08464 10.0049 3.54134 9.69422 4.06543 9.46213C4.58952 9.23004 5.15104 9.11773 5.75 9.12522C6.4388 9.12522 7.08643 9.2787 7.69287 9.58566C8.29932 9.89262 8.80843 10.3269 9.22021 10.8884C9.50472 10.3269 9.86784 9.82524 10.3096 9.38352C10.7513 8.94179 11.2567 8.57493 11.8257 8.28295C11.2716 7.87866 10.8411 7.37329 10.5342 6.76686C10.2272 6.16042 10.07 5.50906 10.0625 4.81279C10.0625 4.22132 10.1748 3.66355 10.3994 3.13947C10.624 2.61539 10.931 2.15869 11.3203 1.76937C11.7096 1.38006 12.1663 1.06935 12.6904 0.83726C13.2145 0.605167 13.776 0.492864 14.375 0.500351C14.9665 0.500351 15.5243 0.612654 16.0483 0.83726C16.5724 1.06187 17.0291 1.36883 17.4185 1.75814C17.8078 2.14746 18.1185 2.6079 18.3506 3.13947C18.5827 3.67104 18.695 4.22881 18.6875 4.81279C18.6875 5.50158 18.534 6.14919 18.2271 6.75563C17.9201 7.36206 17.4858 7.87117 16.9243 8.28295C17.4334 8.5375 17.8939 8.85569 18.3057 9.23752C18.7174 9.61935 19.0656 10.0611 19.3501 10.5627H17.5757ZM5.75 16.3126C6.14681 16.3126 6.51742 16.2377 6.86182 16.088C7.20622 15.9383 7.51318 15.7324 7.78271 15.4703C8.05225 15.2083 8.25814 14.9051 8.40039 14.5607C8.54264 14.2163 8.61751 13.8419 8.625 13.4377C8.625 13.0408 8.55013 12.6702 8.40039 12.3259C8.25065 11.9815 8.04476 11.6745 7.78271 11.405C7.52067 11.1354 7.21745 10.9296 6.87305 10.7873C6.52865 10.6451 6.1543 10.5702 5.75 10.5627C5.35319 10.5627 4.98258 10.6376 4.63818 10.7873C4.29378 10.937 3.98682 11.1429 3.71729 11.405C3.44775 11.667 3.24186 11.9702 3.09961 12.3146C2.95736 12.659 2.88249 13.0334 2.875 13.4377C2.875 13.8345 2.94987 14.2051 3.09961 14.5495C3.24935 14.8938 3.45524 15.2008 3.71729 15.4703C3.97933 15.7399 4.28255 15.9458 4.62695 16.088C4.97135 16.2303 5.3457 16.3051 5.75 16.3126ZM11.5 4.81279C11.5 5.20959 11.5749 5.58019 11.7246 5.92458C11.8743 6.26898 12.0802 6.57594 12.3423 6.84547C12.6043 7.115 12.9076 7.32088 13.252 7.46314C13.5964 7.60539 13.9707 7.68025 14.375 7.68774C14.7718 7.68774 15.1424 7.61287 15.4868 7.46314C15.8312 7.3134 16.1382 7.10751 16.4077 6.84547C16.6772 6.58343 16.8831 6.28021 17.0254 5.93581C17.1676 5.59142 17.2425 5.21708 17.25 4.81279C17.25 4.41598 17.1751 4.04538 17.0254 3.70099C16.8757 3.35659 16.6698 3.04963 16.4077 2.7801C16.1457 2.51057 15.8424 2.30469 15.498 2.16243C15.1536 2.02018 14.7793 1.94532 14.375 1.93783C13.9782 1.93783 13.6076 2.0127 13.2632 2.16243C12.9188 2.31217 12.6118 2.51806 12.3423 2.7801C12.0728 3.04214 11.8669 3.34536 11.7246 3.68976C11.5824 4.03415 11.5075 4.40849 11.5 4.81279Z" fill="#860AA5"/>
</svg>
