<svg width="24" height="24" viewBox="0 0 24 24" fill="none" xmlns="http://www.w3.org/2000/svg">
<path d="M16.9917 1.99673L11.9934 6.99507L6.99501 1.99673C6.33219 1.33391 5.43321 0.961544 4.49584 0.961544C3.55847 0.961543 2.6595 1.33391 1.99668 1.99673C1.33386 2.65955 0.961487 3.55853 0.961487 4.4959C0.961487 5.43327 1.33385 6.33225 1.99668 6.99507L7.08373 11.9047L1.99668 16.9917C1.33385 17.6546 0.961487 18.5535 0.961487 19.4909C0.961487 20.4283 1.33386 21.3273 1.99668 21.9901C2.6595 22.6529 3.55847 23.0253 4.49584 23.0253C5.43321 23.0253 6.33219 22.6529 6.99501 21.9901L11.9934 16.8143L16.9917 21.9901C17.6545 22.6529 18.5535 23.0253 19.4909 23.0253C20.4282 23.0253 21.3272 22.6529 21.99 21.9901C22.6528 21.3273 23.0252 20.4283 23.0252 19.4909C23.0252 18.5535 22.6528 17.6546 21.99 16.9917L16.903 11.9047L21.99 6.99507C22.6528 6.33225 23.0252 5.43327 23.0252 4.4959C23.0252 3.55853 22.6528 2.65955 21.99 1.99673C21.3272 1.33391 20.4282 0.961544 19.4909 0.961544C18.5535 0.961544 17.6545 1.33391 16.9917 1.99673Z" fill="#860AA5"/>
</svg>
