<svg width="34" height="34" viewBox="0 0 34 34" fill="none" xmlns="http://www.w3.org/2000/svg">
<g clip-path="url(#clip0_151_604)">
<path fill-rule="evenodd" clip-rule="evenodd" d="M5.66634 4.25C4.91489 4.25 4.19422 4.54851 3.66287 5.07986C3.13152 5.61122 2.83301 6.33189 2.83301 7.08333V26.9167C2.83301 27.6681 3.13152 28.3888 3.66287 28.9201C4.19422 29.4515 4.91489 29.75 5.66634 29.75H28.333C29.0845 29.75 29.8051 29.4515 30.3365 28.9201C30.8678 28.3888 31.1663 27.6681 31.1663 26.9167V7.08333C31.1663 6.33189 30.8678 5.61122 30.3365 5.07986C29.8051 4.54851 29.0845 4.25 28.333 4.25H5.66634ZM12.2184 12.2258C12.2499 11.955 12.3442 11.6952 12.4938 11.4673C12.6435 11.2394 12.8443 11.0496 13.0803 10.9131C13.3163 10.7766 13.581 10.6971 13.8532 10.681C14.1254 10.6649 14.3976 10.7127 14.648 10.8205C15.362 11.1265 16.8693 11.815 18.779 12.9172C20.1205 13.6851 21.4166 14.5299 22.6607 15.4473C22.8793 15.61 23.0569 15.8216 23.1792 16.0651C23.3015 16.3086 23.3652 16.5773 23.3652 16.8498C23.3652 17.1223 23.3015 17.3911 23.1792 17.6346C23.0569 17.8781 22.8793 18.0897 22.6607 18.2523C21.4166 19.1689 20.1205 20.0127 18.779 20.7797C17.4436 21.5585 16.0643 22.2595 14.648 22.8792C14.3976 22.9873 14.1253 23.0353 13.853 23.0193C13.5807 23.0034 13.316 22.924 13.0798 22.7874C12.8437 22.6508 12.6429 22.4609 12.4933 22.2328C12.3437 22.0047 12.2496 21.7448 12.2184 21.4738C12.0471 19.9385 11.9639 18.3947 11.9691 16.8498C11.9691 14.6526 12.1278 12.9979 12.2184 12.2258Z" fill="#860AA5"/>
</g>
<defs>
<clipPath id="clip0_151_604">
<rect width="34" height="34" fill="white"/>
</clipPath>
</defs>
</svg>
