<svg width="23" height="24" viewBox="0 0 23 24" fill="none" xmlns="http://www.w3.org/2000/svg">
<path d="M0 23.8333V5.14584H2.09091V20.9583H19.8636V23.8333H0ZM4.18182 18.0833V0.833344H23V18.0833H4.18182ZM8.36364 15.2083C8.36364 14.4177 8.15908 13.7411 7.74995 13.1786C7.34083 12.6161 6.84842 12.3343 6.27273 12.3333V15.2083H8.36364ZM18.8182 15.2083H20.9091V12.3333C20.3341 12.3333 19.842 12.6151 19.4329 13.1786C19.0238 13.7421 18.8189 14.4187 18.8182 15.2083ZM13.5909 13.7708C14.4621 13.7708 15.2027 13.3516 15.8125 12.513C16.4223 11.6745 16.7273 10.6563 16.7273 9.45834C16.7273 8.26043 16.4223 7.2422 15.8125 6.40366C15.2027 5.56511 14.4621 5.14584 13.5909 5.14584C12.7197 5.14584 11.9792 5.56511 11.3693 6.40366C10.7595 7.2422 10.4545 8.26043 10.4545 9.45834C10.4545 10.6563 10.7595 11.6745 11.3693 12.513C11.9792 13.3516 12.7197 13.7708 13.5909 13.7708ZM6.27273 6.58334C6.84773 6.58334 7.34014 6.30207 7.74995 5.73953C8.15977 5.17699 8.36433 4.49993 8.36364 3.70834H6.27273V6.58334ZM20.9091 6.58334V3.70834H18.8182C18.8182 4.49897 19.0231 5.17603 19.4329 5.73953C19.8427 6.30303 20.3348 6.5843 20.9091 6.58334Z" fill="#860AA5"/>
</svg>
